<?xml version="1.0" standalone="no"?>
<!DOCTYPE svg PUBLIC "-//W3C//DTD SVG 20010904//EN"
 "http://www.w3.org/TR/2001/REC-SVG-20010904/DTD/svg10.dtd">
<svg version="1.0" xmlns="http://www.w3.org/2000/svg"
 width="700.000000pt" height="700.000000pt" viewBox="0 0 700.000000 700.000000"
 preserveAspectRatio="xMidYMid meet">
<metadata>
Created by potrace 1.11, written by Peter Selinger 2001-2013
</metadata>
<g transform="translate(0.000000,700.000000) scale(0.100000,-0.100000)"
fill="#000000" stroke="none">
<path d="M4474 6802 c-23 -42 -50 -92 -209 -382 -62 -113 -128 -234 -148 -270
-106 -193 -143 -255 -152 -255 -5 1 -26 4 -45 8 -19 4 -57 10 -85 13 -27 3
-52 7 -56 10 -12 7 -327 17 -344 10 -12 -4 -14 -10 -7 -23 8 -13 28 -17 108
-19 113 -3 186 -9 298 -24 129 -18 126 -5 38 -167 -51 -94 -82 -141 -90 -138
-15 5 -252 18 -317 18 -109 -2 -126 -4 -123 -13 2 -7 72 -12 183 -15 99 -2
191 -6 205 -8 14 -3 31 -5 38 -6 14 -1 1 -27 -183 -361 -59 -107 -150 -274
-203 -370 -53 -96 -104 -188 -114 -205 -10 -16 -22 -39 -27 -51 -5 -11 -67
-126 -138 -255 -71 -129 -146 -263 -165 -299 -20 -36 -47 -85 -61 -110 -13
-25 -63 -115 -109 -200 -47 -85 -97 -175 -110 -200 -29 -52 -131 -238 -177
-323 -17 -32 -31 -60 -31 -63 0 -2 186 -5 413 -6 l414 -3 -43 -140 c-23 -77
-128 -423 -232 -768 -105 -346 -193 -631 -195 -634 -3 -2 -14 0 -26 6 -13 7
-22 8 -26 1 -3 -5 5 -15 19 -22 14 -6 26 -14 26 -18 0 -8 -41 -134 -45 -138
-6 -6 -194 74 -290 123 -55 28 -140 77 -188 108 -48 31 -92 57 -97 57 -24 0
-3 -19 79 -73 111 -73 271 -155 393 -203 51 -20 94 -37 95 -38 3 -3 -27 -107
-33 -118 -11 -18 -338 131 -484 221 -138 86 -298 211 -419 330 -89 86 -117
108 -128 100 -17 -15 -10 -25 72 -110 220 -225 546 -439 855 -559 47 -18 86
-34 87 -34 1 -1 -43 -150 -98 -331 -54 -182 -122 -406 -150 -500 -27 -93 -54
-180 -59 -192 -5 -13 -8 -23 -6 -23 6 0 28 38 281 470 311 531 288 495 321
494 25 -1 67 -7 193 -29 61 -11 340 -24 359 -17 6 2 12 13 12 23 0 14 -7 19
-27 20 -215 5 -311 12 -423 34 -10 2 -39 7 -64 10 -25 4 -46 10 -46 12 0 5 18
35 75 131 6 10 27 48 48 85 l39 68 41 -6 c99 -14 189 -20 292 -19 147 2 155 3
155 13 0 5 -60 9 -132 9 -168 1 -338 15 -338 29 0 3 22 42 49 87 27 44 57 96
67 113 49 85 428 731 442 753 9 14 24 39 33 55 9 17 182 311 384 655 440 748
444 754 440 760 -2 3 -198 7 -436 8 -239 2 -435 5 -438 7 -4 4 72 298 100 390
5 17 50 181 100 365 49 184 108 400 130 480 21 80 49 181 61 225 12 44 23 83
25 87 2 4 22 0 45 -8 23 -8 43 -12 46 -10 9 10 -10 25 -39 31 -17 4 -33 13
-36 21 -6 17 27 144 38 144 12 0 187 -68 257 -101 85 -39 231 -122 301 -171
29 -21 58 -35 63 -32 36 22 -338 230 -537 300 -44 15 -81 28 -82 28 -1 1 5 30
14 64 18 72 4 71 153 15 295 -111 579 -294 818 -527 107 -105 132 -121 132
-88 0 25 -124 152 -251 258 -214 179 -519 351 -759 429 -30 10 -56 19 -58 20
-2 1 4 32 13 67 15 59 19 64 39 61 33 -7 43 24 13 38 l-23 11 112 411 c63 227
112 415 111 419 -1 4 -11 -9 -23 -30z"/>
<path d="M3258 6365 c-2 -2 -33 -6 -70 -9 -37 -4 -75 -8 -85 -10 -10 -2 -40
-7 -66 -10 -27 -4 -56 -9 -65 -11 -100 -20 -176 -38 -222 -50 -63 -17 -95 -47
-80 -75 14 -26 39 -32 80 -20 39 12 189 46 235 54 188 33 284 41 500 41 174 0
307 -7 377 -20 49 -9 77 45 41 77 -10 9 -49 19 -88 23 -69 8 -550 16 -557 10z"/>
<path d="M2393 6155 c-47 -21 -53 -27 -53 -53 0 -49 37 -56 114 -21 56 24 70
53 40 83 -21 21 -39 19 -101 -9z"/>
<path d="M4515 6150 c-24 -27 -15 -52 25 -73 106 -53 230 -107 248 -107 27 0
45 25 38 53 -4 18 -29 35 -103 70 -166 78 -184 83 -208 57z"/>
<path d="M3190 6105 c-580 -69 -1104 -315 -1517 -713 -69 -67 -85 -93 -63
-107 8 -5 116 87 155 131 43 49 258 209 385 286 272 165 599 289 876 333 22 3
53 8 69 11 86 15 245 27 392 28 78 1 145 4 148 7 3 4 3 14 -1 23 -6 15 -25 16
-173 15 -91 -1 -213 -8 -271 -14z"/>
<path d="M4462 5918 c-12 -12 -5 -38 10 -38 25 0 295 -141 396 -207 62 -40
119 -73 127 -73 22 0 27 17 9 34 -57 58 -342 220 -483 276 -34 13 -51 16 -59
8z"/>
<path d="M1851 5860 c-149 -105 -170 -130 -135 -164 24 -25 38 -20 122 42 43
31 99 71 125 89 36 25 45 37 42 54 -11 56 -52 51 -154 -21z"/>
<path d="M3025 5897 c-199 -42 -451 -121 -482 -150 -8 -8 -9 -17 -3 -27 8 -13
14 -13 42 -2 103 41 286 97 392 121 106 24 121 30 124 48 4 24 -4 25 -73 10z"/>
<path d="M5156 5784 c-24 -23 -20 -34 30 -81 47 -43 80 -53 102 -31 25 25 13
56 -34 93 -51 38 -74 43 -98 19z"/>
<path d="M3635 5750 c-6 -10 17 -18 67 -22 38 -2 62 8 37 16 -32 11 -99 15
-104 6z"/>
<path d="M3135 5734 c-83 -13 -98 -16 -180 -35 -59 -14 -67 -18 -60 -28 2 -5
40 -1 82 9 43 10 110 23 148 29 39 6 81 13 95 15 14 3 33 5 43 5 9 1 17 6 17
11 0 12 -33 11 -145 -6z"/>
<path d="M2338 5654 c-47 -24 -61 -49 -35 -60 21 -8 109 46 105 64 -5 24 -19
23 -70 -4z"/>
<path d="M5440 5573 c-46 -18 -39 -51 26 -119 234 -246 378 -448 513 -723 37
-75 74 -151 81 -169 21 -54 90 -53 90 2 0 49 -156 356 -263 516 -47 71 -144
200 -198 265 -72 87 -218 236 -229 234 -3 0 -12 -3 -20 -6z"/>
<path d="M2426 5498 c-214 -117 -377 -239 -542 -404 -95 -95 -117 -124 -96
-124 4 0 52 46 107 102 170 171 360 312 564 417 55 29 101 56 101 61 0 18 -24
9 -134 -52z"/>
<path d="M3115 5551 c-16 -3 -28 -11 -25 -16 5 -10 17 -11 60 -2 14 3 29 6 33
6 5 1 5 6 2 11 -7 11 -24 11 -70 1z"/>
<path d="M2670 5416 c-90 -39 -200 -94 -217 -108 -7 -6 -11 -14 -8 -18 3 -5
42 11 88 35 45 24 117 58 160 76 42 17 77 36 77 40 0 15 -23 10 -100 -25z"/>
<path d="M5277 5376 c-3 -8 19 -40 54 -77 339 -354 557 -748 663 -1199 14 -58
27 -123 30 -145 4 -22 8 -51 11 -65 17 -97 28 -239 29 -397 1 -72 4 -135 8
-138 4 -4 14 -5 23 -1 25 9 19 295 -10 515 -71 526 -324 1048 -699 1439 -79
82 -99 94 -109 68z"/>
<path d="M1749 5213 c-402 -415 -639 -928 -694 -1503 -8 -89 -10 -268 -3 -276
4 -3 14 -4 23 -1 11 5 15 23 16 74 1 107 16 311 24 323 2 3 6 28 10 55 38 292
183 661 369 940 105 157 179 245 344 410 57 57 64 75 29 75 -16 0 -52 -30
-118 -97z"/>
<path d="M4516 5301 c-3 -5 24 -28 61 -52 38 -23 103 -68 146 -100 43 -33 82
-59 88 -59 22 0 4 19 -74 76 -141 104 -213 149 -221 135z"/>
<path d="M1214 5253 c-36 -39 -172 -244 -232 -348 -105 -186 -216 -457 -263
-643 -24 -92 -24 -94 -5 -108 43 -31 74 -6 91 76 4 19 23 82 42 140 90 273
216 519 388 758 65 91 75 118 53 140 -19 19 -47 14 -74 -15z"/>
<path d="M2100 5053 c-72 -65 -166 -162 -201 -208 -13 -16 -26 -32 -30 -35
-43 -33 -249 -359 -249 -395 0 -28 17 -7 65 82 91 168 197 306 362 471 73 72
133 134 133 137 0 14 -23 -1 -80 -52z"/>
<path d="M5070 5093 c0 -3 21 -29 48 -57 84 -92 117 -130 156 -183 35 -50 56
-65 56 -44 0 13 -106 145 -180 224 -57 61 -80 78 -80 60z"/>
<path d="M1336 4997 c-79 -104 -254 -425 -272 -499 -5 -24 -3 -28 16 -28 16 0
26 10 38 43 31 80 141 286 206 385 36 55 66 105 66 110 0 25 -31 19 -54 -11z"/>
<path d="M5040 4864 c0 -3 14 -24 31 -46 21 -25 35 -36 41 -30 7 7 -1 23 -23
46 -30 33 -49 45 -49 30z"/>
<path d="M1642 4810 c-32 -44 -39 -60 -24 -60 18 0 66 73 60 92 -2 6 -18 -9
-36 -32z"/>
<path d="M5584 4685 c-9 -23 43 -105 66 -105 26 0 25 5 -7 68 -27 52 -48 65
-59 37z"/>
<path d="M5205 4661 c-3 -6 21 -55 54 -110 66 -109 105 -190 156 -321 34 -87
88 -281 100 -357 4 -24 11 -43 17 -43 27 0 -36 258 -108 441 -63 161 -205 412
-219 390z"/>
<path d="M5506 4492 c-6 -10 34 -102 45 -102 13 0 11 14 -11 64 -19 46 -25 52
-34 38z"/>
<path d="M5700 4435 c0 -9 11 -43 25 -78 34 -82 89 -271 110 -379 12 -57 23
-89 33 -93 17 -6 32 11 27 29 -2 6 -6 27 -9 46 -16 106 -95 373 -136 463 -14
29 -50 38 -50 12z"/>
<path d="M1406 4388 c-28 -62 -90 -238 -101 -287 -5 -24 -4 -32 5 -29 7 2 23
40 35 83 13 44 42 125 64 180 46 112 44 105 31 105 -6 0 -21 -24 -34 -52z"/>
<path d="M1003 4318 c-18 -23 -41 -105 -33 -118 14 -23 36 -3 53 51 15 45 15
55 4 66 -11 12 -16 12 -24 1z"/>
<path d="M1535 4227 c-24 -64 -12 -82 15 -23 14 31 18 52 12 58 -6 6 -16 -6
-27 -35z"/>
<path d="M5610 4236 c0 -2 16 -61 35 -130 35 -131 50 -201 61 -296 3 -30 10
-77 14 -104 4 -27 7 -134 6 -238 -1 -175 4 -228 17 -178 8 31 5 391 -3 451 -5
29 -11 72 -14 94 -22 161 -86 405 -107 405 -5 0 -9 -2 -9 -4z"/>
<path d="M684 3970 c-28 -11 -33 -20 -40 -72 -3 -24 -7 -48 -9 -55 -7 -20 32
-46 59 -39 28 7 33 18 41 92 6 60 -14 88 -51 74z"/>
<path d="M6255 3924 c-10 -11 -14 -27 -11 -48 3 -17 8 -62 11 -101 15 -175 17
-184 57 -185 36 0 47 27 42 98 -9 139 -22 221 -37 240 -13 17 -42 15 -62 -4z"/>
<path d="M1429 3838 c-1 -7 -2 -24 -4 -38 -16 -127 -25 -288 -18 -307 12 -31
21 3 22 86 1 49 4 98 6 110 13 68 17 161 6 161 -6 0 -11 -6 -12 -12z"/>
<path d="M1238 3723 c-18 -36 -12 -481 7 -536 3 -7 6 -30 9 -52 15 -131 86
-382 105 -371 4 3 -6 55 -24 116 -19 61 -39 143 -46 183 -7 40 -13 74 -14 77
-1 3 -5 37 -9 75 -5 39 -10 84 -12 100 -6 43 -5 345 1 377 5 25 -9 48 -17 31z"/>
<path d="M873 3634 c-12 -33 -2 -439 11 -464 2 -3 7 -30 10 -60 10 -82 43
-235 75 -346 115 -395 319 -752 609 -1061 80 -87 112 -107 127 -83 5 8 -57 80
-146 169 -44 44 -161 199 -231 306 -165 251 -277 512 -348 810 -28 117 -32
137 -45 240 -4 28 -9 61 -11 75 -4 19 -15 358 -14 418 0 18 -30 15 -37 -4z"/>
<path d="M5889 3558 c-1 -2 -2 -42 -4 -89 -3 -114 -14 -239 -26 -319 -6 -36
-13 -78 -16 -95 -24 -152 -106 -402 -193 -589 -63 -136 -229 -401 -292 -468
-7 -7 -26 -29 -41 -48 -16 -19 -74 -81 -130 -138 -94 -95 -100 -103 -84 -119
15 -16 23 -10 109 78 51 52 104 108 118 124 295 350 473 718 555 1145 32 167
34 181 41 363 7 156 7 157 -15 157 -11 0 -21 -1 -22 -2z"/>
<path d="M5549 3448 c-3 -102 -9 -174 -25 -271 -7 -46 20 -27 28 19 15 79 22
314 9 314 -7 0 -12 -23 -12 -62z"/>
<path d="M630 3395 c-15 -18 -5 -208 15 -302 6 -28 49 -41 71 -22 14 11 15 27
10 89 -20 244 -21 250 -60 250 -13 0 -29 -7 -36 -15z"/>
<path d="M6261 3186 c-7 -8 -15 -43 -18 -79 -5 -60 -4 -66 16 -77 18 -9 27 -8
47 5 13 8 24 23 25 33 0 9 2 36 5 60 4 26 1 48 -6 57 -16 19 -54 19 -69 1z"/>
<path d="M1435 3134 c4 -16 9 -38 11 -49 18 -92 30 -137 60 -230 19 -58 56
-154 82 -213 47 -105 155 -296 174 -308 24 -15 17 10 -19 68 -130 206 -230
455 -275 687 -8 37 -19 66 -27 69 -11 4 -12 -2 -6 -24z"/>
<path d="M1084 3096 c-8 -20 43 -236 86 -366 56 -166 68 -192 88 -188 24 5 20
26 -27 156 -38 106 -83 264 -96 342 -9 56 -15 70 -31 70 -8 0 -17 -6 -20 -14z"/>
<path d="M5655 2918 c-62 -189 -91 -270 -106 -300 -20 -40 -25 -73 -9 -63 28
17 147 359 129 371 -5 3 -11 -1 -14 -8z"/>
<path d="M6202 2847 c-6 -7 -27 -67 -46 -133 -84 -292 -252 -632 -421 -855
-61 -81 -69 -102 -45 -124 34 -31 60 -12 141 102 196 278 344 588 424 888 24
92 25 99 9 116 -20 22 -47 25 -62 6z"/>
<path d="M5427 2798 c-10 -24 -17 -50 -17 -58 0 -23 25 9 39 49 17 52 -3 59
-22 9z"/>
<path d="M5955 2754 c-16 -55 -15 -84 3 -84 15 0 27 21 40 66 17 58 15 74 -7
74 -15 0 -23 -13 -36 -56z"/>
<path d="M1418 2604 c-8 -8 32 -104 43 -104 14 0 10 21 -11 68 -19 43 -22 46
-32 36z"/>
<path d="M5301 2518 c-96 -180 -220 -342 -387 -504 -63 -62 -114 -114 -114
-118 0 -21 37 9 149 122 142 143 151 153 238 274 64 88 173 276 173 296 0 28
-18 6 -59 -70z"/>
<path d="M5802 2368 c-45 -90 -111 -209 -148 -266 -61 -95 -76 -141 -42 -130
45 15 316 506 301 545 -13 33 -36 2 -111 -149z"/>
<path d="M837 2462 c-22 -24 -16 -45 56 -195 86 -181 241 -432 332 -539 11
-13 40 -48 65 -78 24 -30 83 -95 131 -144 76 -78 89 -88 112 -82 28 7 43 37
30 59 -4 8 -52 61 -107 118 -112 119 -245 290 -331 429 -50 81 -84 147 -213
410 -20 40 -50 50 -75 22z"/>
<path d="M1316 2404 c-6 -17 34 -97 55 -110 6 -3 16 -1 21 4 13 13 -4 59 -34
97 -23 29 -33 31 -42 9z"/>
<path d="M5321 2208 c-32 -43 -38 -58 -23 -58 9 0 72 83 72 94 0 17 -22 1 -49
-36z"/>
<path d="M1860 2203 c0 -5 16 -26 35 -48 29 -33 35 -36 35 -19 0 11 -13 32
-28 47 -28 27 -42 34 -42 20z"/>
<path d="M1647 2194 c-3 -4 20 -41 53 -83 84 -108 195 -227 203 -215 3 6 -17
35 -45 65 -27 29 -67 74 -87 99 -20 25 -44 54 -54 65 -10 11 -26 32 -35 48
-17 28 -24 32 -35 21z"/>
<path d="M5094 1938 c-171 -175 -380 -330 -573 -428 -94 -47 -127 -70 -100
-70 26 0 227 109 329 179 180 123 469 388 442 404 -5 4 -49 -35 -98 -85z"/>
<path d="M2160 1900 c0 -10 154 -127 237 -179 94 -59 76 -21 -19 42 -51 33
-119 80 -150 104 -59 45 -68 49 -68 33z"/>
<path d="M5284 1651 c-80 -77 -116 -108 -199 -174 -33 -27 -69 -56 -80 -65
-53 -43 -283 -180 -390 -231 -207 -100 -470 -187 -655 -217 -14 -2 -38 -6 -55
-9 -16 -2 -47 -7 -67 -10 -21 -3 -55 -8 -75 -11 -21 -3 -121 -8 -223 -9 -102
-2 -188 -4 -192 -5 -16 0 -8 -31 10 -37 27 -11 253 -7 394 7 102 9 292 42 380
64 113 29 248 72 303 96 11 5 54 23 95 40 165 68 401 207 550 323 138 108 300
260 300 283 0 31 -33 16 -96 -45z"/>
<path d="M4465 1684 c-22 -13 -88 -45 -147 -71 -60 -26 -108 -53 -108 -60 0
-19 257 96 315 141 l20 15 -20 0 c-11 -1 -38 -12 -60 -25z"/>
<path d="M3838 1467 c-63 -12 -63 -31 -1 -23 45 5 73 19 56 28 -4 2 -29 0 -55
-5z"/>
<path d="M4618 1384 c-33 -17 -48 -31 -48 -44 0 -26 10 -25 71 5 34 18 49 31
47 42 -5 25 -19 24 -70 -3z"/>
<path d="M1965 1390 c-10 -16 12 -38 85 -85 168 -109 429 -241 456 -231 33 13
9 35 -83 77 -80 36 -171 84 -288 153 -11 7 -49 31 -84 54 -69 45 -76 48 -86
32z"/>
<path d="M1698 1328 c-31 -25 -29 -48 5 -79 71 -67 127 -71 127 -11 0 22 -11
36 -50 65 -55 41 -59 42 -82 25z"/>
<path d="M4005 1319 c-16 -5 -43 -11 -60 -14 -16 -3 -43 -8 -60 -12 -16 -3
-39 -7 -50 -8 -106 -13 -131 -18 -140 -26 -23 -23 101 -9 290 32 49 10 90 19
92 19 2 0 3 5 3 10 0 12 -34 12 -75 -1z"/>
<path d="M5175 1285 c-28 -19 -82 -57 -122 -85 -78 -54 -95 -81 -68 -110 24
-27 44 -19 148 54 150 106 162 121 127 156 -11 11 -23 20 -28 20 -4 0 -30 -16
-57 -35z"/>
<path d="M4400 1281 c-51 -29 -341 -115 -460 -136 -47 -8 -70 -23 -64 -40 4
-8 12 -15 20 -15 11 0 116 22 214 45 35 8 181 55 252 81 75 28 104 56 71 68
-17 7 -15 7 -33 -3z"/>
<path d="M3230 1260 c0 -5 6 -10 13 -11 6 0 31 -3 55 -5 44 -5 58 9 20 20 -36
9 -88 7 -88 -4z"/>
<path d="M2160 1016 c-6 -8 -10 -25 -8 -38 2 -18 25 -34 107 -74 57 -29 121
-58 143 -65 35 -11 41 -11 58 7 37 37 17 58 -98 109 -59 26 -117 54 -129 61
-29 18 -57 18 -73 0z"/>
<path d="M4535 921 c-57 -23 -65 -30 -65 -55 0 -49 35 -57 111 -25 53 23 72
56 49 84 -16 19 -44 18 -95 -4z"/>
<path d="M4220 814 c-198 -47 -357 -74 -525 -89 -67 -6 -338 -6 -400 -1 -22 2
-74 7 -117 11 -97 9 -118 3 -118 -35 0 -37 18 -47 105 -55 39 -4 84 -9 100
-12 37 -6 407 -5 455 1 19 3 64 7 100 11 36 3 72 8 80 10 8 3 31 7 50 9 123
16 341 71 352 88 14 22 9 57 -9 66 -11 6 -39 4 -73 -4z"/>
</g>
</svg>
