<?xml version="1.0" encoding="utf-8"?>
<!-- Generator: Adobe Illustrator 25.2.1, SVG Export Plug-In . SVG Version: 6.00 Build 0)  -->
<svg version="1.1" id="Layer_1" xmlns="http://www.w3.org/2000/svg" xmlns:xlink="http://www.w3.org/1999/xlink" x="0px" y="0px"
	 viewBox="0 0 320 600" style="enable-background:new 0 0 320 600;" xml:space="preserve">
<g>
	<g>
		<path d="M73.37,553.88H60.33v-13.61h-8.36v13.61H38.93v-42.29c0-6.01,3.17-8.29,8.93-8.29h25.51V553.88z M60.33,528.81v-13.93
			h-8.36v13.93H60.33z"/>
		<path d="M108.25,553.88H87.17c-5.76,0-8.67-2.15-8.67-7.98v-34.57c0-5.83,2.91-8.04,8.67-8.04h21.08v11.59l-16.71,0.06v27.35
			h16.71V553.88z"/>
		<path d="M141.49,553.88h-29.38V503.3h29.38v11.59h-16.33v7.72h16.33v11.52h-16.33v8.17h16.33V553.88z"/>
		<path d="M175.36,553.88h-29.38V503.3h13.04v39h16.33V553.88z"/>
		<path d="M192.26,553.88h-13.04V503.3h13.04V553.88z"/>
		<path d="M231.76,545.9c0,5.64-2.91,7.98-8.67,7.98h-17.03c-5.44,0-8.67-2.22-8.67-7.98v-34.57c0-5.38,2.91-8.04,8.67-8.04h17.03
			c5.51,0,8.67,2.28,8.67,8.04V545.9z M218.72,542.3v-27.35h-8.29v27.35H218.72z"/>
		<path d="M274.11,553.88h-10.89l-13.3-23.17v23.17h-13.04V503.3h11.4l12.79,22.1v-22.1h13.04V553.88z"/>
		<path d="M80.38,594.65c-0.23,0.28-0.51,0.53-0.83,0.73c-0.32,0.21-0.67,0.38-1.04,0.51c-0.37,0.13-0.75,0.23-1.14,0.3
			c-0.39,0.07-0.78,0.1-1.17,0.1c-0.74,0-1.42-0.13-2.04-0.37c-0.62-0.25-1.16-0.62-1.61-1.1c-0.45-0.48-0.81-1.08-1.06-1.79
			c-0.25-0.71-0.38-1.53-0.38-2.45c0-0.75,0.11-1.44,0.34-2.09c0.23-0.65,0.56-1.21,0.99-1.68c0.43-0.47,0.95-0.85,1.57-1.12
			c0.62-0.27,1.32-0.41,2.09-0.41c0.64,0,1.23,0.11,1.78,0.32c0.54,0.21,1.02,0.52,1.41,0.93s0.71,0.9,0.93,1.5
			c0.22,0.59,0.34,1.27,0.34,2.03c0,0.3-0.03,0.49-0.1,0.59c-0.06,0.1-0.18,0.15-0.36,0.15h-7.14c0.02,0.68,0.11,1.26,0.28,1.76
			c0.17,0.5,0.4,0.92,0.69,1.25c0.3,0.33,0.65,0.58,1.06,0.75c0.41,0.17,0.87,0.25,1.37,0.25c0.47,0,0.88-0.05,1.22-0.16
			c0.34-0.11,0.63-0.23,0.88-0.35c0.25-0.13,0.45-0.24,0.62-0.35c0.17-0.11,0.31-0.16,0.43-0.16c0.15,0,0.27,0.06,0.36,0.18
			L80.38,594.65z M78.86,589.64c0-0.44-0.06-0.83-0.18-1.2c-0.12-0.36-0.3-0.68-0.54-0.94c-0.24-0.26-0.52-0.47-0.86-0.61
			c-0.34-0.14-0.72-0.22-1.15-0.22c-0.9,0-1.61,0.26-2.14,0.79c-0.52,0.52-0.85,1.25-0.98,2.18H78.86z"/>
		<path d="M85.68,587.01c0.23-0.26,0.48-0.5,0.74-0.71c0.26-0.21,0.54-0.39,0.83-0.54c0.29-0.15,0.6-0.27,0.93-0.35
			c0.33-0.08,0.68-0.12,1.06-0.12c0.58,0,1.1,0.1,1.55,0.29c0.45,0.19,0.82,0.47,1.12,0.82c0.3,0.36,0.53,0.78,0.68,1.28
			c0.15,0.5,0.23,1.05,0.23,1.66v6.81h-1.89v-6.81c0-0.81-0.18-1.44-0.55-1.88c-0.37-0.45-0.93-0.67-1.68-0.67
			c-0.56,0-1.07,0.13-1.56,0.4c-0.48,0.27-0.93,0.63-1.34,1.09v7.87h-1.89v-10.69h1.13c0.27,0,0.43,0.13,0.5,0.39L85.68,587.01z"/>
		<path d="M105.41,594.65c-0.23,0.28-0.51,0.53-0.83,0.73c-0.32,0.21-0.67,0.38-1.04,0.51c-0.37,0.13-0.75,0.23-1.14,0.3
			c-0.39,0.07-0.78,0.1-1.17,0.1c-0.74,0-1.42-0.13-2.04-0.37c-0.62-0.25-1.16-0.62-1.61-1.1c-0.45-0.48-0.81-1.08-1.06-1.79
			c-0.25-0.71-0.38-1.53-0.38-2.45c0-0.75,0.11-1.44,0.34-2.09c0.23-0.65,0.56-1.21,0.99-1.68c0.43-0.47,0.95-0.85,1.57-1.12
			c0.62-0.27,1.32-0.41,2.09-0.41c0.64,0,1.23,0.11,1.78,0.32c0.54,0.21,1.02,0.52,1.41,0.93c0.4,0.4,0.71,0.9,0.93,1.5
			c0.22,0.59,0.34,1.27,0.34,2.03c0,0.3-0.03,0.49-0.1,0.59c-0.06,0.1-0.18,0.15-0.36,0.15h-7.14c0.02,0.68,0.11,1.26,0.28,1.76
			c0.17,0.5,0.4,0.92,0.69,1.25c0.3,0.33,0.65,0.58,1.06,0.75c0.41,0.17,0.87,0.25,1.37,0.25c0.47,0,0.88-0.05,1.22-0.16
			c0.34-0.11,0.63-0.23,0.88-0.35c0.25-0.13,0.45-0.24,0.62-0.35c0.17-0.11,0.31-0.16,0.43-0.16c0.15,0,0.27,0.06,0.36,0.18
			L105.41,594.65z M103.89,589.64c0-0.44-0.06-0.83-0.18-1.2c-0.12-0.36-0.3-0.68-0.54-0.94c-0.24-0.26-0.52-0.47-0.86-0.61
			c-0.34-0.14-0.72-0.22-1.15-0.22c-0.9,0-1.61,0.26-2.14,0.79c-0.52,0.52-0.85,1.25-0.98,2.18H103.89z"/>
		<path d="M110.72,587.6c0.34-0.73,0.75-1.3,1.25-1.71c0.49-0.41,1.09-0.62,1.8-0.62c0.22,0,0.44,0.02,0.65,0.07
			c0.21,0.05,0.39,0.13,0.55,0.23l-0.14,1.4c-0.04,0.18-0.15,0.26-0.32,0.26c-0.1,0-0.24-0.02-0.43-0.06
			c-0.19-0.04-0.4-0.06-0.64-0.06c-0.34,0-0.64,0.05-0.9,0.15c-0.26,0.1-0.5,0.24-0.71,0.44c-0.21,0.19-0.39,0.43-0.56,0.72
			c-0.16,0.29-0.31,0.61-0.45,0.98v6.75h-1.89v-10.69h1.08c0.2,0,0.34,0.04,0.42,0.12c0.08,0.08,0.13,0.21,0.16,0.4L110.72,587.6z"
			/>
		<path d="M126.45,585.88v0.7c0,0.23-0.15,0.38-0.44,0.44l-1.21,0.16c0.24,0.46,0.36,0.98,0.36,1.54c0,0.52-0.1,0.99-0.3,1.42
			c-0.2,0.43-0.48,0.79-0.83,1.09c-0.35,0.3-0.77,0.53-1.27,0.7c-0.49,0.16-1.03,0.24-1.6,0.24c-0.5,0-0.97-0.06-1.41-0.18
			c-0.23,0.14-0.4,0.29-0.52,0.45c-0.12,0.16-0.18,0.32-0.18,0.48c0,0.25,0.1,0.44,0.31,0.58c0.21,0.13,0.48,0.22,0.82,0.28
			c0.34,0.06,0.72,0.09,1.16,0.11c0.43,0.01,0.88,0.04,1.33,0.07c0.45,0.03,0.9,0.09,1.33,0.16c0.43,0.08,0.82,0.2,1.15,0.38
			s0.61,0.42,0.82,0.73c0.21,0.31,0.31,0.71,0.31,1.2c0,0.46-0.11,0.9-0.34,1.33c-0.23,0.43-0.56,0.81-0.99,1.14
			c-0.43,0.33-0.95,0.6-1.58,0.8c-0.62,0.2-1.32,0.3-2.11,0.3c-0.78,0-1.46-0.08-2.05-0.23c-0.58-0.16-1.07-0.36-1.46-0.62
			c-0.39-0.26-0.68-0.56-0.87-0.9c-0.19-0.34-0.29-0.7-0.29-1.07c0-0.53,0.16-0.97,0.5-1.34c0.33-0.36,0.78-0.66,1.36-0.88
			c-0.32-0.14-0.57-0.33-0.75-0.56c-0.19-0.24-0.28-0.55-0.28-0.95c0-0.15,0.03-0.32,0.09-0.48c0.06-0.17,0.14-0.33,0.26-0.5
			c0.12-0.16,0.26-0.32,0.43-0.47c0.17-0.15,0.37-0.28,0.59-0.39c-0.53-0.3-0.94-0.69-1.23-1.18c-0.3-0.49-0.44-1.06-0.44-1.7
			c0-0.52,0.1-0.99,0.3-1.42c0.2-0.43,0.48-0.79,0.84-1.09c0.36-0.3,0.79-0.53,1.28-0.69c0.5-0.16,1.04-0.24,1.63-0.24
			c0.46,0,0.9,0.05,1.3,0.15c0.4,0.1,0.77,0.25,1.1,0.45H126.45z M124.54,596.73c0-0.26-0.07-0.47-0.22-0.63
			c-0.15-0.16-0.35-0.29-0.6-0.38c-0.25-0.09-0.54-0.16-0.87-0.19c-0.33-0.04-0.68-0.07-1.05-0.09c-0.37-0.02-0.74-0.04-1.12-0.06
			c-0.38-0.02-0.75-0.06-1.1-0.11c-0.39,0.18-0.72,0.41-0.97,0.69c-0.25,0.28-0.37,0.6-0.37,0.98c0,0.24,0.06,0.46,0.18,0.67
			c0.12,0.21,0.31,0.39,0.56,0.54s0.57,0.27,0.95,0.36c0.38,0.09,0.84,0.13,1.36,0.13c0.51,0,0.96-0.05,1.36-0.14
			c0.4-0.09,0.74-0.22,1.02-0.39c0.28-0.17,0.49-0.37,0.64-0.6S124.54,597.01,124.54,596.73z M121.15,590.93
			c0.38,0,0.71-0.05,1-0.16c0.29-0.11,0.53-0.25,0.73-0.44c0.2-0.19,0.34-0.42,0.44-0.68c0.1-0.26,0.15-0.55,0.15-0.87
			c0-0.65-0.2-1.17-0.6-1.56c-0.4-0.39-0.97-0.58-1.73-0.58c-0.76,0-1.34,0.19-1.74,0.58c-0.4,0.39-0.6,0.91-0.6,1.56
			c0,0.32,0.05,0.61,0.15,0.87c0.1,0.26,0.25,0.49,0.45,0.68c0.2,0.19,0.44,0.34,0.73,0.44
			C120.44,590.87,120.77,590.93,121.15,590.93z"/>
		<path d="M138.68,585.46l-5.96,13.84c-0.06,0.14-0.14,0.25-0.24,0.34c-0.09,0.08-0.24,0.13-0.44,0.13h-1.39l1.95-4.24l-4.41-10.07
			h1.62c0.16,0,0.29,0.04,0.39,0.12c0.1,0.08,0.16,0.17,0.19,0.27l2.86,6.73c0.11,0.3,0.21,0.6,0.29,0.93
			c0.1-0.33,0.2-0.64,0.32-0.94l2.77-6.72c0.04-0.11,0.12-0.21,0.22-0.28c0.1-0.07,0.22-0.11,0.34-0.11H138.68z"/>
		<path d="M153.56,587.22c-0.09,0.16-0.21,0.23-0.39,0.23c-0.11,0-0.22-0.04-0.36-0.12c-0.13-0.08-0.3-0.16-0.49-0.26
			c-0.19-0.09-0.42-0.18-0.69-0.26c-0.27-0.08-0.58-0.12-0.95-0.12c-0.32,0-0.6,0.04-0.85,0.12c-0.25,0.08-0.47,0.19-0.65,0.33
			c-0.18,0.14-0.32,0.3-0.41,0.49c-0.1,0.19-0.14,0.39-0.14,0.61c0,0.27,0.08,0.5,0.24,0.69c0.16,0.18,0.37,0.34,0.63,0.47
			c0.26,0.13,0.56,0.25,0.89,0.35c0.33,0.1,0.67,0.21,1.02,0.33c0.35,0.12,0.69,0.24,1.02,0.38s0.63,0.32,0.89,0.53
			c0.26,0.21,0.47,0.47,0.63,0.78c0.16,0.31,0.24,0.67,0.24,1.1c0,0.49-0.09,0.95-0.26,1.37c-0.18,0.42-0.44,0.78-0.78,1.09
			c-0.34,0.31-0.77,0.55-1.27,0.72c-0.5,0.18-1.08,0.26-1.73,0.26c-0.75,0-1.42-0.12-2.03-0.36c-0.6-0.24-1.12-0.55-1.54-0.93
			l0.44-0.72c0.06-0.09,0.12-0.16,0.2-0.21c0.08-0.05,0.18-0.07,0.3-0.07c0.13,0,0.26,0.05,0.4,0.15c0.14,0.1,0.31,0.21,0.51,0.33
			c0.2,0.12,0.44,0.23,0.73,0.33c0.29,0.1,0.65,0.15,1.08,0.15c0.37,0,0.69-0.05,0.96-0.14c0.27-0.1,0.5-0.22,0.69-0.39
			c0.18-0.16,0.32-0.35,0.41-0.56c0.09-0.21,0.13-0.44,0.13-0.67c0-0.3-0.08-0.54-0.24-0.73c-0.16-0.19-0.37-0.36-0.63-0.5
			c-0.26-0.14-0.56-0.26-0.89-0.36c-0.33-0.1-0.68-0.21-1.02-0.32c-0.35-0.11-0.69-0.24-1.02-0.39c-0.33-0.14-0.63-0.33-0.89-0.54
			c-0.26-0.22-0.47-0.49-0.63-0.81c-0.16-0.32-0.24-0.71-0.24-1.17c0-0.41,0.08-0.8,0.25-1.18c0.17-0.38,0.41-0.71,0.74-0.99
			c0.32-0.29,0.72-0.51,1.19-0.68c0.47-0.17,1.01-0.25,1.61-0.25c0.7,0,1.33,0.11,1.89,0.33c0.56,0.22,1.04,0.53,1.45,0.91
			L153.56,587.22z"/>
		<path d="M159.91,582.11c0,0.18-0.04,0.35-0.11,0.51c-0.07,0.16-0.17,0.3-0.3,0.42c-0.12,0.12-0.27,0.22-0.43,0.29
			c-0.17,0.07-0.34,0.11-0.52,0.11c-0.18,0-0.35-0.04-0.51-0.11c-0.16-0.07-0.3-0.17-0.42-0.29c-0.12-0.12-0.21-0.26-0.29-0.42
			c-0.07-0.16-0.1-0.33-0.1-0.51c0-0.18,0.03-0.36,0.1-0.52c0.07-0.16,0.17-0.31,0.29-0.43c0.12-0.12,0.26-0.22,0.42-0.29
			c0.16-0.07,0.33-0.11,0.51-0.11c0.18,0,0.36,0.04,0.52,0.11c0.16,0.07,0.31,0.17,0.43,0.29c0.12,0.12,0.22,0.27,0.3,0.43
			C159.87,581.75,159.91,581.92,159.91,582.11z M159.5,585.46v10.69h-1.88v-10.69H159.5z"/>
		<path d="M163.64,596.15v-10.69h1.13c0.27,0,0.43,0.13,0.5,0.39l0.14,1.1c0.39-0.49,0.84-0.88,1.33-1.19
			c0.49-0.31,1.06-0.46,1.71-0.46c0.72,0,1.3,0.2,1.75,0.6c0.45,0.4,0.77,0.94,0.97,1.62c0.15-0.39,0.35-0.72,0.6-1
			c0.24-0.28,0.52-0.51,0.82-0.7c0.3-0.18,0.62-0.32,0.97-0.4c0.34-0.08,0.69-0.13,1.04-0.13c0.56,0,1.06,0.09,1.5,0.27
			c0.44,0.18,0.81,0.44,1.12,0.79c0.31,0.35,0.54,0.77,0.7,1.27c0.16,0.5,0.24,1.08,0.24,1.73v6.81h-1.89v-6.81
			c0-0.84-0.18-1.47-0.55-1.9s-0.89-0.65-1.58-0.65c-0.31,0-0.6,0.05-0.88,0.16c-0.28,0.11-0.52,0.27-0.73,0.48
			c-0.21,0.21-0.38,0.48-0.5,0.8c-0.12,0.32-0.18,0.69-0.18,1.11v6.81h-1.89v-6.81c0-0.86-0.17-1.5-0.52-1.92
			c-0.34-0.42-0.85-0.63-1.51-0.63c-0.46,0-0.89,0.12-1.29,0.37s-0.76,0.59-1.09,1.02v7.97H163.64z"/>
		<path d="M183.85,587.12c0.45-0.56,0.97-1,1.56-1.34c0.59-0.34,1.27-0.51,2.03-0.51c0.62,0,1.18,0.12,1.68,0.35
			c0.5,0.24,0.92,0.58,1.28,1.04c0.35,0.46,0.62,1.03,0.81,1.71c0.19,0.68,0.29,1.47,0.29,2.35c0,0.79-0.11,1.52-0.32,2.2
			c-0.21,0.68-0.52,1.27-0.91,1.76c-0.4,0.5-0.88,0.89-1.46,1.17c-0.57,0.29-1.22,0.43-1.94,0.43c-0.65,0-1.21-0.11-1.68-0.33
			c-0.47-0.22-0.88-0.53-1.24-0.92v4.73h-1.89v-14.31h1.13c0.27,0,0.43,0.13,0.5,0.39L183.85,587.12z M183.94,593.57
			c0.34,0.46,0.72,0.79,1.13,0.98c0.41,0.19,0.87,0.28,1.37,0.28c1,0,1.77-0.35,2.3-1.07c0.53-0.71,0.8-1.72,0.8-3.04
			c0-0.7-0.06-1.29-0.18-1.79c-0.12-0.5-0.3-0.91-0.53-1.23c-0.23-0.32-0.52-0.55-0.86-0.7s-0.72-0.22-1.15-0.22
			c-0.61,0-1.15,0.14-1.61,0.42c-0.46,0.28-0.88,0.68-1.27,1.19V593.57z"/>
		<path d="M196.88,580.61v15.54H195v-15.54H196.88z"/>
		<path d="M203.36,582.11c0,0.18-0.04,0.35-0.11,0.51c-0.07,0.16-0.17,0.3-0.3,0.42c-0.12,0.12-0.27,0.22-0.43,0.29
			c-0.17,0.07-0.34,0.11-0.52,0.11c-0.18,0-0.35-0.04-0.51-0.11c-0.16-0.07-0.3-0.17-0.42-0.29c-0.12-0.12-0.21-0.26-0.29-0.42
			c-0.07-0.16-0.1-0.33-0.1-0.51c0-0.18,0.03-0.36,0.1-0.52c0.07-0.16,0.17-0.31,0.29-0.43c0.12-0.12,0.26-0.22,0.42-0.29
			c0.16-0.07,0.33-0.11,0.51-0.11c0.18,0,0.36,0.04,0.52,0.11c0.16,0.07,0.31,0.17,0.43,0.29c0.12,0.12,0.22,0.27,0.3,0.43
			C203.32,581.75,203.36,581.92,203.36,582.11z M202.95,585.46v10.69h-1.88v-10.69H202.95z"/>
		<path d="M207.81,596.15v-9.08l-1.18-0.14c-0.15-0.04-0.28-0.09-0.37-0.16c-0.09-0.07-0.14-0.18-0.14-0.32v-0.77h1.69v-0.59
			c0-0.65,0.1-1.25,0.31-1.8c0.2-0.55,0.51-1.01,0.92-1.41c0.41-0.39,0.92-0.7,1.52-0.92c0.61-0.22,1.31-0.33,2.12-0.33
			c0.27,0,0.54,0.02,0.82,0.05c0.28,0.04,0.52,0.09,0.73,0.16l-0.07,0.98c-0.01,0.07-0.03,0.12-0.08,0.15
			c-0.05,0.03-0.11,0.05-0.18,0.05c-0.08,0.01-0.17,0.01-0.29,0.01c-0.12,0-0.25-0.01-0.4-0.01c-1.25,0-2.16,0.26-2.72,0.78
			c-0.56,0.52-0.84,1.3-0.84,2.34v0.54h6.46v10.48h-1.89v-9.12h-4.52v9.12H207.81z"/>
		<path d="M228.9,594.65c-0.23,0.28-0.51,0.53-0.83,0.73c-0.32,0.21-0.67,0.38-1.04,0.51c-0.37,0.13-0.75,0.23-1.14,0.3
			c-0.39,0.07-0.78,0.1-1.17,0.1c-0.74,0-1.42-0.13-2.04-0.37c-0.62-0.25-1.16-0.62-1.61-1.1c-0.45-0.48-0.81-1.08-1.06-1.79
			c-0.25-0.71-0.38-1.53-0.38-2.45c0-0.75,0.11-1.44,0.34-2.09c0.23-0.65,0.56-1.21,0.99-1.68c0.43-0.47,0.95-0.85,1.57-1.12
			c0.62-0.27,1.32-0.41,2.09-0.41c0.64,0,1.23,0.11,1.78,0.32c0.54,0.21,1.02,0.52,1.41,0.93s0.71,0.9,0.93,1.5
			c0.22,0.59,0.34,1.27,0.34,2.03c0,0.3-0.03,0.49-0.1,0.59c-0.06,0.1-0.18,0.15-0.36,0.15h-7.14c0.02,0.68,0.11,1.26,0.28,1.76
			c0.17,0.5,0.4,0.92,0.69,1.25c0.3,0.33,0.65,0.58,1.06,0.75c0.41,0.17,0.87,0.25,1.37,0.25c0.47,0,0.88-0.05,1.22-0.16
			c0.34-0.11,0.63-0.23,0.88-0.35c0.25-0.13,0.45-0.24,0.62-0.35c0.17-0.11,0.31-0.16,0.43-0.16c0.15,0,0.27,0.06,0.36,0.18
			L228.9,594.65z M227.38,589.64c0-0.44-0.06-0.83-0.18-1.2c-0.12-0.36-0.3-0.68-0.54-0.94c-0.24-0.26-0.52-0.47-0.86-0.61
			c-0.34-0.14-0.72-0.22-1.15-0.22c-0.9,0-1.61,0.26-2.14,0.79c-0.52,0.52-0.85,1.25-0.98,2.18H227.38z"/>
		<path d="M241.26,580.61v15.54h-1.12c-0.27,0-0.44-0.13-0.51-0.39l-0.17-1.3c-0.46,0.55-0.98,0.99-1.56,1.33
			c-0.58,0.34-1.26,0.51-2.03,0.51c-0.61,0-1.17-0.12-1.67-0.35c-0.5-0.24-0.93-0.58-1.28-1.04c-0.35-0.46-0.62-1.03-0.81-1.71
			c-0.19-0.68-0.29-1.47-0.29-2.35c0-0.79,0.11-1.52,0.32-2.2c0.21-0.68,0.51-1.27,0.91-1.77c0.39-0.5,0.88-0.89,1.45-1.18
			c0.57-0.29,1.22-0.43,1.94-0.43c0.65,0,1.21,0.11,1.68,0.33c0.47,0.22,0.88,0.53,1.25,0.92v-5.92H241.26z M239.39,588
			c-0.35-0.47-0.73-0.8-1.14-0.99c-0.41-0.19-0.87-0.28-1.37-0.28c-0.99,0-1.76,0.36-2.29,1.07c-0.53,0.71-0.8,1.72-0.8,3.04
			c0,0.7,0.06,1.29,0.18,1.79c0.12,0.5,0.3,0.9,0.53,1.22c0.23,0.32,0.52,0.55,0.85,0.7c0.34,0.15,0.72,0.22,1.15,0.22
			c0.62,0,1.16-0.14,1.62-0.42c0.46-0.28,0.88-0.68,1.27-1.19V588z"/>
	</g>
	<g>
		<g>
			<path d="M160,328.89c-13.94,0-27.58-2.44-40.54-7.26c-0.33-0.12-0.49-0.49-0.37-0.82c0.12-0.33,0.49-0.49,0.82-0.37
				c12.81,4.77,26.3,7.18,40.09,7.18c2.64,0,5.31-0.09,7.92-0.27c0.34-0.03,0.65,0.24,0.68,0.59c0.02,0.35-0.24,0.65-0.59,0.68
				C165.37,328.8,162.68,328.89,160,328.89z M177.49,327.58c-0.31,0-0.58-0.23-0.63-0.54c-0.05-0.35,0.19-0.67,0.53-0.72
				c1.56-0.24,3.14-0.51,4.7-0.81c0.34-0.06,0.68,0.16,0.74,0.5c0.07,0.34-0.16,0.68-0.5,0.74c-1.57,0.3-3.17,0.58-4.75,0.82
				C177.56,327.57,177.52,327.58,177.49,327.58z M200.64,321.55c-0.26,0-0.5-0.16-0.59-0.41c-0.12-0.33,0.04-0.69,0.37-0.82
				c5.93-2.23,11.72-4.97,17.2-8.15c0.3-0.18,0.69-0.08,0.87,0.23c0.18,0.3,0.07,0.69-0.23,0.87c-5.55,3.22-11.4,5.99-17.39,8.24
				C200.79,321.53,200.72,321.55,200.64,321.55z M102.35,313.51c-0.11,0-0.22-0.03-0.32-0.08c-5.55-3.2-10.88-6.89-15.83-10.97
				c-0.27-0.22-0.31-0.62-0.09-0.89c0.22-0.27,0.62-0.31,0.89-0.09c4.9,4.03,10.17,7.68,15.66,10.85c0.3,0.18,0.41,0.56,0.23,0.87
				C102.78,313.4,102.57,313.51,102.35,313.51z M233.65,302.4c-0.18,0-0.36-0.08-0.49-0.23c-0.22-0.27-0.19-0.67,0.08-0.89
				c12.52-10.36,22.92-23.53,30.05-38.08c0.15-0.32,0.54-0.44,0.85-0.29c0.31,0.15,0.44,0.54,0.29,0.85
				c-7.21,14.71-17.72,28.02-30.38,38.5C233.94,302.35,233.79,302.4,233.65,302.4z M72.86,289.26c-0.18,0-0.35-0.07-0.48-0.22
				c-1.05-1.2-2.09-2.45-3.09-3.69c-0.22-0.27-0.18-0.67,0.1-0.89c0.28-0.22,0.67-0.18,0.89,0.1c0.99,1.23,2.02,2.46,3.06,3.65
				c0.23,0.27,0.2,0.67-0.06,0.9C73.16,289.2,73.01,289.26,72.86,289.26z M64.1,277.87c-0.2,0-0.4-0.1-0.53-0.28
				c-9.32-13.81-15.45-29.13-18.21-45.53c-0.06-0.35,0.17-0.67,0.52-0.73c0.34-0.05,0.67,0.17,0.73,0.52
				c2.73,16.22,8.79,31.36,18,45.03c0.2,0.29,0.12,0.68-0.17,0.88C64.35,277.83,64.22,277.87,64.1,277.87z M267.73,255.33
				c-0.08,0-0.15-0.01-0.23-0.04c-0.33-0.13-0.49-0.5-0.36-0.82c0.58-1.48,1.13-2.99,1.64-4.49c0.11-0.33,0.47-0.51,0.81-0.39
				c0.33,0.11,0.51,0.47,0.39,0.81c-0.52,1.52-1.08,3.04-1.66,4.54C268.22,255.18,267.98,255.33,267.73,255.33z M274.07,232.25
				c-0.03,0-0.07,0-0.1-0.01c-0.35-0.06-0.58-0.38-0.52-0.73c1.02-6.19,1.54-12.54,1.54-18.87c0-0.35,0.28-0.69,0.63-0.69
				c0.35,0,0.63,0.23,0.63,0.58v0.11c0,6.4-0.52,12.81-1.56,19.08C274.64,232.03,274.37,232.25,274.07,232.25z M44.39,213.5
				c-0.35,0-0.63-0.28-0.63-0.63v-0.23c0-6.44,0.53-12.89,1.58-19.19c0.06-0.35,0.38-0.58,0.73-0.52c0.35,0.06,0.58,0.38,0.52,0.73
				c-1.03,6.23-1.56,12.62-1.56,18.98v0.23C45.02,213.22,44.74,213.5,44.39,213.5z M274.03,194.08c-0.3,0-0.57-0.22-0.62-0.53
				c-2.71-16.22-8.75-31.37-17.96-45.05c-0.2-0.29-0.12-0.68,0.17-0.88c0.29-0.2,0.68-0.12,0.88,0.17
				c9.31,13.82,15.42,29.15,18.16,45.54c0.06,0.35-0.18,0.67-0.52,0.73C274.1,194.08,274.06,194.08,274.03,194.08z M50.66,175.63
				c-0.07,0-0.14-0.01-0.21-0.03c-0.33-0.11-0.51-0.48-0.39-0.81c0.52-1.52,1.09-3.05,1.67-4.53c0.13-0.33,0.49-0.49,0.82-0.36
				c0.33,0.13,0.49,0.5,0.36,0.82c-0.58,1.47-1.13,2.98-1.65,4.49C51.17,175.46,50.92,175.63,50.66,175.63z M56.19,162.34
				c-0.09,0-0.19-0.02-0.28-0.07c-0.31-0.15-0.44-0.53-0.29-0.85c7.23-14.7,17.74-28,30.42-38.46c0.27-0.22,0.67-0.19,0.89,0.09
				c0.22,0.27,0.18,0.67-0.09,0.89c-12.53,10.35-22.94,23.51-30.09,38.05C56.65,162.21,56.42,162.34,56.19,162.34z M250.29,141.06
				c-0.19,0-0.37-0.08-0.5-0.24c-0.99-1.23-2.02-2.46-3.05-3.66c-0.23-0.26-0.2-0.66,0.06-0.89c0.27-0.23,0.67-0.2,0.89,0.06
				c1.05,1.2,2.09,2.45,3.09,3.7c0.22,0.27,0.17,0.67-0.1,0.89C250.57,141.02,250.43,141.06,250.29,141.06z M233.49,124.03
				c-0.14,0-0.29-0.05-0.4-0.15c-4.9-4.04-10.17-7.69-15.65-10.86c-0.3-0.18-0.41-0.56-0.23-0.87c0.17-0.3,0.57-0.41,0.87-0.23
				c5.54,3.2,10.87,6.9,15.82,10.98c0.27,0.22,0.31,0.62,0.09,0.89C233.86,123.95,233.67,124.03,233.49,124.03z M102.16,113.15
				c-0.22,0-0.43-0.11-0.55-0.32c-0.18-0.3-0.07-0.69,0.23-0.87c5.55-3.21,11.41-5.98,17.4-8.23c0.33-0.12,0.69,0.04,0.82,0.37
				c0.12,0.33-0.04,0.69-0.37,0.82c-5.93,2.22-11.72,4.96-17.21,8.14C102.38,113.13,102.27,113.15,102.16,113.15z M200.42,104.93
				c-0.07,0-0.15-0.01-0.22-0.04c-12.84-4.79-26.37-7.22-40.2-7.22c-0.01,0-0.02,0-0.03,0c-2.59,0-5.2,0.09-7.78,0.26
				c-0.35,0.02-0.65-0.24-0.68-0.59c-0.02-0.35,0.24-0.65,0.59-0.68c2.61-0.17,5.25-0.26,7.87-0.26c0.01,0,0.02,0,0.03,0
				c13.99,0,27.66,2.46,40.64,7.3c0.33,0.12,0.5,0.49,0.37,0.82C200.92,104.77,200.68,104.93,200.42,104.93z M137.9,99.78
				c-0.3,0-0.56-0.21-0.62-0.51c-0.07-0.34,0.16-0.68,0.5-0.74c1.58-0.3,3.17-0.58,4.75-0.82c0.35-0.04,0.67,0.19,0.72,0.53
				c0.05,0.35-0.19,0.67-0.53,0.72c-1.56,0.23-3.14,0.51-4.7,0.81C137.98,99.77,137.94,99.78,137.9,99.78z"/>
		</g>
		<g>
			<path d="M151.33,338.59c-0.01,0-0.03,0-0.04,0c-1.72-0.12-3.48-0.28-5.21-0.47c-0.35-0.04-0.6-0.35-0.56-0.7
				c0.04-0.35,0.35-0.6,0.7-0.56c1.72,0.19,3.46,0.34,5.16,0.46c0.35,0.02,0.61,0.33,0.59,0.68
				C151.94,338.33,151.66,338.59,151.33,338.59z M172.14,338.3c-0.32,0-0.6-0.25-0.63-0.57c-0.03-0.35,0.22-0.66,0.57-0.69
				c6.87-0.66,13.73-1.9,20.38-3.69c0.33-0.08,0.69,0.11,0.78,0.45c0.09,0.34-0.11,0.69-0.45,0.78c-6.72,1.8-13.64,3.05-20.59,3.72
				C172.19,338.3,172.16,338.3,172.14,338.3z M135.85,336.56c-0.04,0-0.08,0-0.12-0.01c-17.77-3.47-34.23-10.54-48.93-21.02
				c-0.29-0.2-0.35-0.6-0.15-0.88c0.2-0.29,0.6-0.35,0.88-0.15c14.55,10.38,30.85,17.38,48.43,20.81c0.34,0.07,0.57,0.4,0.5,0.74
				C136.41,336.35,136.15,336.56,135.85,336.56z M212.22,327.56c-0.24,0-0.47-0.14-0.58-0.37c-0.15-0.32,0-0.7,0.31-0.84
				c13.54-6.18,25.8-14.71,36.42-25.33c2.01-2.01,3.97-4.1,5.82-6.23c0.23-0.27,0.63-0.29,0.89-0.06c0.26,0.23,0.29,0.63,0.06,0.9
				c-1.88,2.15-3.85,4.26-5.88,6.29c-10.73,10.73-23.11,19.34-36.79,25.59C212.4,327.54,212.3,327.56,212.22,327.56z M71.28,302.2
				c-0.16,0-0.32-0.06-0.45-0.19l-0.1-0.1c-4.95-4.95-9.5-10.32-13.53-15.96c-0.2-0.29-0.14-0.68,0.15-0.89
				c0.28-0.2,0.68-0.14,0.89,0.15c3.99,5.59,8.5,10.9,13.4,15.8l0.1,0.1c0.25,0.25,0.25,0.65,0,0.9
				C71.6,302.13,71.44,302.2,71.28,302.2z M261.2,287.72c-0.13,0-0.26-0.04-0.38-0.12c-0.28-0.21-0.34-0.61-0.13-0.89
				c1.02-1.38,2.02-2.8,2.99-4.23c0.2-0.29,0.59-0.37,0.88-0.17c0.29,0.2,0.37,0.59,0.17,0.88c-0.98,1.45-1.99,2.88-3.02,4.27
				C261.58,287.63,261.39,287.72,261.2,287.72z M47.06,268.34c-0.23,0-0.46-0.13-0.57-0.36c-0.76-1.56-1.5-3.16-2.2-4.75
				c-0.14-0.32,0.01-0.7,0.33-0.84c0.32-0.14,0.7,0.01,0.84,0.33c0.69,1.58,1.42,3.16,2.17,4.71c0.15,0.31,0.02,0.69-0.29,0.85
				C47.25,268.31,47.16,268.34,47.06,268.34z M274.37,265.31c-0.09,0-0.18-0.02-0.26-0.06c-0.32-0.14-0.46-0.52-0.31-0.84
				c2.85-6.27,5.2-12.83,6.97-19.5c0.09-0.34,0.44-0.54,0.78-0.45c0.34,0.09,0.54,0.44,0.45,0.78c-1.79,6.73-4.16,13.36-7.04,19.69
				C274.84,265.18,274.61,265.31,274.37,265.31z M41.11,253.89c-0.26,0-0.51-0.17-0.6-0.43c-4.48-13.15-6.75-26.88-6.75-40.82
				c0-4.02,0.19-8.09,0.58-12.09c0.03-0.35,0.34-0.61,0.69-0.57c0.35,0.03,0.6,0.34,0.57,0.69c-0.38,3.96-0.57,7.98-0.57,11.96
				c0,13.8,2.25,27.4,6.68,40.41c0.11,0.33-0.06,0.69-0.4,0.81C41.24,253.88,41.18,253.89,41.11,253.89z M285.05,225.23
				c-0.02,0-0.04,0-0.06,0c-0.35-0.03-0.6-0.34-0.57-0.69c0.37-3.93,0.56-7.94,0.56-11.9c0-13.82-2.26-27.44-6.71-40.48
				c-0.11-0.33,0.06-0.69,0.4-0.81c0.33-0.11,0.69,0.06,0.81,0.4c4.49,13.17,6.77,26.92,6.77,40.89c0,4-0.19,8.04-0.57,12.02
				C285.65,224.99,285.37,225.23,285.05,225.23z M38.65,180.77c-0.05,0-0.11-0.01-0.16-0.02c-0.34-0.09-0.54-0.44-0.45-0.78
				c1.8-6.73,4.17-13.36,7.05-19.69c0.15-0.32,0.52-0.46,0.84-0.31c0.32,0.14,0.46,0.52,0.31,0.84c-2.85,6.27-5.2,12.83-6.98,19.49
				C39.19,180.58,38.93,180.77,38.65,180.77z M275.1,162.89c-0.24,0-0.48-0.14-0.58-0.38c-0.69-1.57-1.42-3.15-2.18-4.71
				c-0.15-0.31-0.02-0.69,0.29-0.85c0.32-0.15,0.7-0.02,0.85,0.29c0.76,1.57,1.51,3.17,2.2,4.75c0.14,0.32-0.01,0.7-0.33,0.84
				C275.27,162.87,275.18,162.89,275.1,162.89z M55.84,143.03c-0.12,0-0.25-0.04-0.36-0.11c-0.29-0.2-0.37-0.59-0.17-0.88
				c0.97-1.44,1.99-2.87,3.02-4.27c0.21-0.28,0.6-0.34,0.89-0.13c0.28,0.21,0.34,0.61,0.13,0.89c-1.02,1.39-2.03,2.81-2.99,4.23
				C56.25,142.93,56.05,143.03,55.84,143.03z M262.25,140.28c-0.2,0-0.39-0.09-0.52-0.27c-3.98-5.57-8.48-10.86-13.36-15.74
				c-0.25-0.25-0.27-0.67-0.02-0.92c0.25-0.25,0.63-0.27,0.87-0.02l0.05,0.05c4.93,4.93,9.47,10.28,13.49,15.9
				c0.2,0.29,0.14,0.68-0.15,0.89C262.51,140.24,262.38,140.28,262.25,140.28z M65.38,130.66c-0.15,0-0.3-0.05-0.42-0.16
				c-0.26-0.23-0.29-0.63-0.06-0.9c1.87-2.13,3.83-4.23,5.83-6.24c10.75-10.75,23.15-19.37,36.85-25.62c0.32-0.15,0.7,0,0.84,0.31
				c0.14,0.32,0,0.7-0.31,0.84c-13.57,6.19-25.84,14.72-36.48,25.36c-1.99,1.99-3.93,4.06-5.78,6.17
				C65.73,130.59,65.55,130.66,65.38,130.66z M232.89,110.95c-0.13,0-0.26-0.04-0.37-0.12c-14.55-10.39-30.84-17.4-48.42-20.84
				c-0.34-0.07-0.57-0.4-0.5-0.74c0.07-0.35,0.41-0.57,0.74-0.5c17.76,3.47,34.22,10.56,48.92,21.05c0.29,0.2,0.35,0.6,0.15,0.88
				C233.29,110.86,233.09,110.95,232.89,110.95z M127.44,91.94c-0.28,0-0.54-0.19-0.61-0.47c-0.09-0.34,0.11-0.69,0.45-0.78
				c6.72-1.8,13.65-3.05,20.59-3.71c0.36-0.04,0.66,0.22,0.69,0.57c0.03,0.35-0.22,0.66-0.57,0.69c-6.87,0.66-13.73,1.9-20.38,3.67
				C127.55,91.93,127.5,91.94,127.44,91.94z M173.93,88.44c-0.02,0-0.05,0-0.07,0c-1.7-0.19-3.44-0.35-5.16-0.46
				c-0.35-0.02-0.61-0.33-0.59-0.68s0.33-0.6,0.68-0.59c1.74,0.12,3.49,0.28,5.21,0.47c0.35,0.04,0.6,0.35,0.56,0.7
				C174.52,88.2,174.25,88.44,173.93,88.44z"/>
		</g>
		<g>
			<path d="M159.96,348.83c-38.23,0-74.94-16.24-100.72-44.56c-0.47-0.52-0.43-1.32,0.08-1.79c0.52-0.47,1.32-0.43,1.79,0.08
				c25.3,27.79,61.32,43.73,98.84,43.73c0.74,0,1.48,0,2.22-0.02l0.3,0c0.01,0,0.02,0,0.03,0c0.69,0,1.25,0.55,1.27,1.24
				c0.02,0.7-0.54,1.28-1.24,1.3l-0.32,0C161.46,348.83,160.71,348.83,159.96,348.83z M182.82,346.91c-0.61,0-1.14-0.44-1.25-1.06
				c-0.12-0.69,0.35-1.35,1.04-1.46c9.98-1.7,19.76-4.54,29.07-8.45c0.65-0.28,1.39,0.03,1.66,0.68c0.27,0.65-0.03,1.39-0.68,1.66
				c-9.49,3.98-19.46,6.88-29.63,8.61C182.96,346.9,182.89,346.91,182.82,346.91z M221.42,334.08c-0.46,0-0.91-0.25-1.13-0.69
				c-0.32-0.62-0.07-1.39,0.55-1.71c1.49-0.76,2.99-1.56,4.45-2.38c0.61-0.34,1.38-0.13,1.73,0.49c0.34,0.61,0.13,1.38-0.49,1.73
				c-1.49,0.84-3.02,1.65-4.53,2.43C221.81,334.03,221.61,334.08,221.42,334.08z M250.7,313.8c-0.34,0-0.69-0.14-0.94-0.42
				c-0.47-0.52-0.43-1.32,0.09-1.79c27.84-25.3,43.8-61.35,43.8-98.9c0-0.74,0-1.48-0.02-2.22l0-0.2c-0.01-0.7,0.55-1.28,1.25-1.29
				c0.01,0,0.02,0,0.02,0c0.69,0,1.26,0.55,1.27,1.25l0,0.21c0.01,0.76,0.02,1.51,0.02,2.26c0,38.27-16.27,75-44.64,100.78
				C251.31,313.69,251.01,313.8,250.7,313.8z M42.3,279.91c-0.44,0-0.87-0.23-1.11-0.65c-0.84-1.5-1.66-3.03-2.43-4.53
				c-0.32-0.62-0.07-1.39,0.55-1.71c0.62-0.32,1.39-0.07,1.71,0.55c0.76,1.47,1.56,2.97,2.39,4.45c0.34,0.61,0.13,1.38-0.49,1.73
				C42.72,279.86,42.51,279.91,42.3,279.91z M35.58,266.17c-0.49,0-0.97-0.29-1.17-0.78c-3.99-9.49-6.9-19.46-8.63-29.62
				c-0.12-0.69,0.35-1.35,1.04-1.46c0.7-0.11,1.35,0.35,1.46,1.04c1.71,9.97,4.56,19.75,8.47,29.07c0.27,0.65-0.03,1.39-0.68,1.66
				C35.91,266.14,35.74,266.17,35.58,266.17z M25.11,216.52c-0.69,0-1.26-0.55-1.27-1.25l-0.01-0.41c-0.01-0.76-0.02-1.51-0.02-2.26
				c0-38.35,16.33-75.13,44.79-100.92c0.52-0.47,1.32-0.43,1.79,0.09c0.47,0.52,0.43,1.32-0.09,1.79
				c-27.94,25.31-43.96,61.41-43.96,99.04c0,0.74,0,1.48,0.02,2.22l0.01,0.41c0.01,0.7-0.55,1.28-1.25,1.29
				C25.12,216.52,25.12,216.52,25.11,216.52z M293.01,191.2c-0.61,0-1.15-0.44-1.25-1.06c-1.69-9.98-4.53-19.76-8.43-29.08
				c-0.27-0.65,0.03-1.39,0.68-1.66c0.65-0.27,1.39,0.03,1.66,0.68c3.98,9.5,6.86,19.47,8.59,29.64c0.12,0.69-0.35,1.35-1.04,1.46
				C293.15,191.19,293.08,191.2,293.01,191.2z M280.22,152.59c-0.46,0-0.91-0.25-1.13-0.69c-0.76-1.49-1.56-2.99-2.38-4.45
				c-0.34-0.61-0.13-1.38,0.49-1.73c0.61-0.34,1.38-0.12,1.73,0.49c0.84,1.49,1.65,3.02,2.43,4.53c0.32,0.62,0.07,1.39-0.55,1.71
				C280.61,152.54,280.41,152.59,280.22,152.59z M259.96,123.29c-0.34,0-0.69-0.14-0.94-0.42c-25.8-28.43-62.76-44.48-101.19-43.86
				c-0.01,0-0.01,0-0.02,0c-0.69,0-1.31-0.55-1.32-1.25c-0.01-0.7,0.49-1.28,1.19-1.29c0,0,0.1,0,0.1,0
				c0.76-0.01,1.51-0.02,2.26-0.02c38.31,0,75.07,16.3,100.85,44.71c0.47,0.52,0.43,1.32-0.09,1.79
				C260.57,123.18,260.26,123.29,259.96,123.29z M94.28,96.06c-0.44,0-0.88-0.23-1.11-0.65c-0.34-0.61-0.12-1.38,0.49-1.73
				c1.49-0.83,3.02-1.65,4.54-2.42c0.62-0.32,1.39-0.07,1.71,0.55c0.32,0.62,0.07,1.39-0.55,1.71c-1.49,0.76-2.99,1.56-4.45,2.38
				C94.7,96,94.49,96.06,94.28,96.06z M108.02,89.37c-0.5,0-0.97-0.29-1.17-0.78c-0.27-0.65,0.03-1.39,0.68-1.66
				c9.5-3.97,19.48-6.85,29.64-8.57c0.69-0.13,1.34,0.35,1.46,1.04c0.12,0.69-0.35,1.35-1.04,1.46c-9.98,1.68-19.76,4.51-29.09,8.41
				C108.35,89.34,108.19,89.37,108.02,89.37z"/>
		</g>
		<g>
			<path d="M159.99,358.89c-2.36,0-4.76-0.06-7.12-0.17c-0.7-0.03-1.24-0.63-1.21-1.33c0.04-0.7,0.63-1.23,1.33-1.21
				c2.32,0.11,4.67,0.17,7,0.17c39.28,0,75.96-15.54,103.27-43.76l0.1-0.11c0.49-0.5,1.29-0.52,1.79-0.03
				c0.5,0.49,0.52,1.29,0.03,1.79l-0.09,0.09C237.29,343.08,199.96,358.89,159.99,358.89z M120.5,353.44
				c-0.12,0-0.23-0.01-0.35-0.05c-1.78-0.5-3.57-1.04-5.3-1.6c-0.67-0.22-1.03-0.93-0.82-1.6c0.22-0.67,0.93-1.03,1.6-0.82
				c1.7,0.55,3.45,1.08,5.2,1.58c0.67,0.19,1.07,0.89,0.88,1.57C121.57,353.07,121.06,353.44,120.5,353.44z M104.95,348.08
				c-0.16,0-0.32-0.03-0.48-0.1c-10.23-4.19-20-9.57-29.03-15.98c-0.57-0.41-0.71-1.2-0.3-1.77c0.41-0.57,1.2-0.71,1.77-0.3
				c8.87,6.3,18.46,11.59,28.52,15.71c0.65,0.27,0.96,1.01,0.69,1.65C105.93,347.78,105.45,348.08,104.95,348.08z M59.31,318.22
				c-0.32,0-0.64-0.12-0.89-0.36l-0.13-0.13c-28.72-27.81-44.54-65.13-44.54-105.11c0-2.41,0.06-4.86,0.18-7.27
				c0.03-0.7,0.58-1.26,1.33-1.2c0.7,0.03,1.24,0.63,1.2,1.33c-0.12,2.37-0.18,4.77-0.18,7.15c0,39.28,15.54,75.96,43.76,103.27
				l0.15,0.14c0.5,0.49,0.51,1.29,0.02,1.79C59.97,318.1,59.64,318.22,59.31,318.22z M278.29,297.77c-0.25,0-0.51-0.08-0.73-0.23
				c-0.57-0.41-0.71-1.2-0.3-1.77c6.3-8.87,11.59-18.46,15.72-28.51c0.27-0.65,1.01-0.96,1.66-0.69c0.65,0.27,0.96,1.01,0.69,1.66
				c-4.2,10.23-9.58,19.99-15.99,29.02C279.08,297.59,278.69,297.77,278.29,297.77z M297.92,258.71c-0.13,0-0.26-0.02-0.39-0.06
				c-0.67-0.22-1.03-0.93-0.82-1.6c0.56-1.72,1.09-3.47,1.58-5.21c0.19-0.68,0.89-1.07,1.57-0.87c0.67,0.19,1.07,0.89,0.87,1.57
				c-0.5,1.76-1.04,3.55-1.6,5.29C298.96,258.37,298.46,258.71,297.92,258.71z M304.81,221.04c-0.02,0-0.04,0-0.06,0
				c-0.7-0.03-1.24-0.63-1.21-1.33c0.11-2.34,0.17-4.71,0.17-7.05c0-39.28-15.54-75.96-43.76-103.27c-0.5-0.49-0.55-1.32-0.07-1.83
				c0.49-0.51,1.25-0.56,1.75-0.08c0.01,0.01,0.09,0.09,0.1,0.09c28.7,27.78,44.52,65.11,44.52,105.08c0,2.37-0.06,4.78-0.17,7.17
				C306.04,220.51,305.48,221.04,304.81,221.04z M20.52,174.27c-0.12,0-0.23-0.02-0.35-0.05c-0.67-0.19-1.07-0.89-0.87-1.57
				c0.5-1.77,1.04-3.55,1.61-5.29c0.22-0.67,0.93-1.03,1.6-0.82c0.67,0.22,1.03,0.93,0.82,1.6c-0.56,1.72-1.09,3.47-1.58,5.2
				C21.58,173.9,21.07,174.27,20.52,174.27z M25.89,158.72c-0.16,0-0.32-0.03-0.48-0.1c-0.65-0.27-0.96-1.01-0.69-1.66
				c4.2-10.23,9.59-19.99,16.02-29.01c0.41-0.57,1.2-0.71,1.77-0.3c0.57,0.41,0.7,1.2,0.3,1.77c-6.31,8.86-11.6,18.45-15.74,28.5
				C26.87,158.43,26.39,158.72,25.89,158.72z M55.8,113.09c-0.31,0-0.63-0.11-0.87-0.34c-0.5-0.48-0.54-1.26-0.06-1.77
				c0.01-0.01,0.05-0.05,0.06-0.06c27.78-28.7,65.11-44.52,105.08-44.52c2.39,0,4.82,0.06,7.22,0.18c0.7,0.03,1.24,0.63,1.21,1.33
				c-0.03,0.7-0.62,1.21-1.33,1.21c-2.36-0.12-4.74-0.17-7.1-0.17c-39.28,0-75.96,15.54-103.27,43.76
				C56.49,112.95,56.14,113.09,55.8,113.09z M243.9,95.65c-0.25,0-0.51-0.08-0.73-0.23c-8.86-6.31-18.46-11.6-28.51-15.73
				c-0.65-0.27-0.96-1.01-0.69-1.66c0.27-0.65,1.01-0.96,1.66-0.69c10.23,4.2,19.99,9.59,29.01,16.01c0.57,0.41,0.7,1.2,0.3,1.77
				C244.69,95.47,244.3,95.65,243.9,95.65z M204.85,76.01c-0.13,0-0.26-0.02-0.39-0.06c-1.72-0.56-3.47-1.09-5.2-1.58
				c-0.67-0.19-1.07-0.89-0.87-1.57c0.19-0.68,0.89-1.06,1.57-0.88c1.77,0.5,3.55,1.04,5.29,1.61c0.67,0.22,1.03,0.93,0.82,1.6
				C205.88,75.67,205.38,76.01,204.85,76.01z"/>
		</g>
		<g>
			<path d="M159.98,372.82c-7.28,0-14.63-0.5-21.83-1.49c-1.39-0.19-2.36-1.47-2.17-2.86c0.19-1.39,1.48-2.36,2.86-2.17
				c6.98,0.96,14.09,1.44,21.15,1.44c14.47,0,28.85-2.01,42.73-5.97c1.35-0.39,2.75,0.4,3.14,1.74c0.39,1.35-0.4,2.75-1.74,3.14
				C189.78,370.75,174.93,372.82,159.98,372.82z M217.22,362.11c-1.02,0-1.98-0.62-2.37-1.62c-0.51-1.31,0.14-2.78,1.45-3.29
				c1.48-0.58,2.96-1.18,4.43-1.8c1.29-0.55,2.78,0.05,3.33,1.34c0.55,1.29-0.05,2.78-1.34,3.33c-1.52,0.64-3.04,1.26-4.57,1.86
				C217.83,362.06,217.52,362.11,217.22,362.11z M101.05,361.43c-0.31,0-0.64-0.06-0.95-0.18c-4.56-1.84-9.09-3.91-13.45-6.16
				c-1.25-0.64-1.74-2.17-1.09-3.42c0.64-1.24,2.17-1.73,3.42-1.09c4.23,2.18,8.61,4.18,13.02,5.96c1.3,0.52,1.93,2,1.41,3.3
				C103,360.83,102.05,361.43,101.05,361.43z M245.29,347.8c-0.83,0-1.65-0.41-2.14-1.16c-0.76-1.18-0.42-2.75,0.76-3.51
				c4-2.58,7.93-5.38,11.67-8.31c1.1-0.87,2.7-0.67,3.56,0.43c0.87,1.1,0.67,2.7-0.43,3.56c-3.87,3.03-7.92,5.92-12.05,8.59
				C246.24,347.67,245.76,347.8,245.29,347.8z M65.24,341.18c-0.53,0-1.07-0.17-1.53-0.51c-1.31-0.99-2.6-1.99-3.89-3.02
				c-1.09-0.88-1.27-2.47-0.39-3.57c0.88-1.09,2.47-1.27,3.57-0.39c1.24,1,2.5,1.98,3.77,2.93c1.12,0.84,1.34,2.44,0.5,3.55
				C66.77,340.83,66.01,341.18,65.24,341.18z M50.49,328.58c-0.64,0-1.28-0.24-1.77-0.72l-0.13-0.13
				c-16.17-15.65-28.63-34.08-37.02-54.78c-0.53-1.3,0.1-2.78,1.4-3.31c1.3-0.52,2.78,0.1,3.31,1.4
				c8.13,20.03,20.19,37.88,35.85,53.04l0.14,0.13c1.01,0.98,1.03,2.58,0.05,3.59C51.81,328.32,51.15,328.58,50.49,328.58z
				 M284.5,311.9c-0.55,0-1.09-0.17-1.56-0.54c-1.11-0.86-1.3-2.46-0.44-3.56c13.34-17.13,22.76-36.5,28-57.56
				c0.34-1.36,1.71-2.19,3.08-1.85c1.36,0.34,2.19,1.72,1.85,3.07c-5.41,21.75-15.14,41.76-28.92,59.45
				C286.01,311.56,285.26,311.9,284.5,311.9z M315.83,239.12c-0.13,0-0.26-0.01-0.39-0.03c-1.39-0.21-2.34-1.51-2.12-2.89
				c0.24-1.57,0.46-3.15,0.65-4.73c0.17-1.39,1.46-2.38,2.82-2.21c1.39,0.17,2.38,1.43,2.21,2.83c-0.2,1.63-0.42,3.26-0.67,4.89
				C318.14,238.22,317.06,239.12,315.83,239.12z M3.89,237.11c-1.25,0-2.33-0.92-2.51-2.19C0.7,230.07,0.23,225.11,0,220.2
				c-0.07-1.4,1.02-2.59,2.42-2.65c1.41-0.09,2.59,1.01,2.65,2.42c0.22,4.76,0.67,9.56,1.33,14.27c0.19,1.39-0.77,2.67-2.16,2.87
				C4.12,237.11,4,237.11,3.89,237.11z M317.46,207.66c-1.35,0-2.47-1.06-2.53-2.42c-0.23-4.75-0.68-9.55-1.34-14.27
				c-0.19-1.39,0.77-2.67,2.16-2.87c1.4-0.19,2.67,0.77,2.87,2.16c0.68,4.87,1.15,9.82,1.38,14.73c0.07,1.4-1.02,2.59-2.42,2.66
				C317.54,207.65,317.5,207.66,317.46,207.66z M3.53,195.96c-0.1,0-0.21-0.01-0.31-0.02c-1.39-0.17-2.38-1.44-2.21-2.83
				c0.2-1.63,0.42-3.26,0.67-4.89c0.21-1.39,1.53-2.33,2.89-2.12c1.39,0.21,2.34,1.51,2.12,2.89c-0.24,1.57-0.46,3.15-0.65,4.73
				C5.89,195.02,4.8,195.96,3.53,195.96z M7.06,176.88c-0.2,0-0.41-0.02-0.62-0.08c-1.36-0.34-2.19-1.72-1.85-3.08
				c5.43-21.75,15.17-41.75,28.96-59.43c0.86-1.11,2.46-1.3,3.56-0.44c1.11,0.86,1.3,2.46,0.44,3.56
				c-13.35,17.12-22.78,36.48-28.04,57.54C9.23,176.11,8.2,176.88,7.06,176.88z M306.05,155.74c-1,0-1.95-0.6-2.35-1.58
				c-8.13-20-20.18-37.82-35.82-52.96c-1-0.97-1.07-2.6-0.1-3.61c0.97-1.01,2.53-1.08,3.54-0.12c0.03,0.03,0.12,0.11,0.14,0.14
				c16.1,15.58,28.54,33.98,36.94,54.64c0.53,1.3-0.1,2.78-1.4,3.31C306.69,155.68,306.37,155.74,306.05,155.74z M258.66,92.22
				c-0.56,0-1.12-0.18-1.59-0.56c-1.24-1-2.5-1.98-3.76-2.93c-1.12-0.84-1.34-2.44-0.5-3.55c0.84-1.12,2.43-1.34,3.55-0.5
				c1.3,0.99,2.6,1.99,3.88,3.03c1.09,0.88,1.27,2.48,0.39,3.57C260.14,91.89,259.4,92.22,258.66,92.22z M62.92,90.96
				c-0.75,0-1.5-0.33-2-0.97c-0.87-1.1-0.67-2.7,0.43-3.56c3.87-3.04,7.93-5.92,12.06-8.58c1.18-0.76,2.75-0.42,3.51,0.76
				c0.76,1.18,0.42,2.75-0.76,3.51c-4,2.57-7.93,5.37-11.68,8.3C64.02,90.78,63.47,90.96,62.92,90.96z M232.27,75.04
				c-0.39,0-0.79-0.09-1.16-0.28c-4.22-2.18-8.6-4.19-13.02-5.97c-1.3-0.52-1.93-2-1.4-3.3c0.52-1.3,2-1.93,3.3-1.4
				c4.56,1.84,9.09,3.91,13.45,6.17c1.25,0.64,1.74,2.17,1.09,3.42C234.08,74.54,233.19,75.04,232.27,75.04z M98.37,70.04
				c-0.99,0-1.93-0.58-2.34-1.55c-0.55-1.29,0.05-2.78,1.34-3.33c1.52-0.64,3.04-1.26,4.58-1.86c1.3-0.51,2.78,0.14,3.28,1.45
				c0.51,1.31-0.14,2.78-1.45,3.28c-1.48,0.58-2.96,1.17-4.43,1.8C99.04,69.98,98.71,70.04,98.37,70.04z M116.68,63.59
				c-1.11,0-2.12-0.73-2.44-1.84c-0.38-1.35,0.4-2.75,1.75-3.14c14.31-4.07,29.12-6.14,44.04-6.14c7.31,0,14.69,0.5,21.93,1.5
				c1.39,0.19,2.36,1.47,2.17,2.86c-0.19,1.39-1.47,2.36-2.86,2.17c-7.01-0.96-14.15-1.45-21.23-1.45c-14.44,0-28.79,2-42.64,5.95
				C117.14,63.55,116.91,63.59,116.68,63.59z"/>
		</g>
		<g>
			<path d="M94.04,237.9l52.52-0.05c0.08,0,0.14,0.08,0.11,0.15L90.15,425.13c-0.04,0.13,0.14,0.21,0.21,0.09l139.48-237.48
				c0.05-0.08-0.01-0.18-0.1-0.18l-55.89-0.4c-0.08,0-0.13-0.07-0.11-0.15L224.47,0"/>
		</g>
	</g>
</g>
</svg>
